<mxfile host="app.diagrams.net" modified="2022-06-28T20:26:41.954Z" agent="5.0 (Windows NT 10.0; Win64; x64) AppleWebKit/537.36 (KHTML, like Gecko) Chrome/102.0.0.0 Safari/537.36" etag="Ruw42faMrwOPH1Fs50yO" version="20.0.3" type="github">
  <diagram id="lEZ2qUskj46iXv0K6vZH" name="Page-1">
    <mxGraphModel dx="1422" dy="832" grid="1" gridSize="10" guides="1" tooltips="1" connect="1" arrows="1" fold="1" page="1" pageScale="1" pageWidth="583" pageHeight="827" background="none" math="0" shadow="0">
      <root>
        <mxCell id="0" />
        <mxCell id="1" parent="0" />
        <mxCell id="grYxfkFOOMS37sdBGafB-8" style="edgeStyle=orthogonalEdgeStyle;rounded=0;orthogonalLoop=1;jettySize=auto;html=1;entryX=0.5;entryY=0;entryDx=0;entryDy=0;exitX=0.5;exitY=1;exitDx=0;exitDy=0;" parent="1" source="grYxfkFOOMS37sdBGafB-41" target="grYxfkFOOMS37sdBGafB-38" edge="1">
          <mxGeometry relative="1" as="geometry">
            <mxPoint x="190" y="100" as="sourcePoint" />
            <mxPoint x="420" y="140" as="targetPoint" />
            <Array as="points" />
          </mxGeometry>
        </mxCell>
        <mxCell id="grYxfkFOOMS37sdBGafB-20" style="edgeStyle=orthogonalEdgeStyle;rounded=0;orthogonalLoop=1;jettySize=auto;html=1;entryX=0.5;entryY=0;entryDx=0;entryDy=0;" parent="1" target="grYxfkFOOMS37sdBGafB-19" edge="1">
          <mxGeometry relative="1" as="geometry">
            <mxPoint x="190" y="200" as="sourcePoint" />
          </mxGeometry>
        </mxCell>
        <mxCell id="grYxfkFOOMS37sdBGafB-21" style="edgeStyle=orthogonalEdgeStyle;rounded=0;orthogonalLoop=1;jettySize=auto;html=1;entryX=0.5;entryY=0;entryDx=0;entryDy=0;" parent="1" target="grYxfkFOOMS37sdBGafB-17" edge="1">
          <mxGeometry relative="1" as="geometry">
            <mxPoint x="190" y="220" as="sourcePoint" />
            <Array as="points">
              <mxPoint x="190" y="200" />
              <mxPoint x="75" y="200" />
            </Array>
          </mxGeometry>
        </mxCell>
        <mxCell id="grYxfkFOOMS37sdBGafB-22" style="edgeStyle=orthogonalEdgeStyle;rounded=0;orthogonalLoop=1;jettySize=auto;html=1;entryX=0.5;entryY=0;entryDx=0;entryDy=0;exitX=0.5;exitY=1;exitDx=0;exitDy=0;" parent="1" source="grYxfkFOOMS37sdBGafB-38" target="grYxfkFOOMS37sdBGafB-18" edge="1">
          <mxGeometry relative="1" as="geometry">
            <mxPoint x="190.0344827586207" y="200" as="sourcePoint" />
            <mxPoint x="305" y="260" as="targetPoint" />
            <Array as="points">
              <mxPoint x="190" y="200" />
              <mxPoint x="305" y="200" />
            </Array>
          </mxGeometry>
        </mxCell>
        <mxCell id="grYxfkFOOMS37sdBGafB-106" style="edgeStyle=orthogonalEdgeStyle;rounded=0;orthogonalLoop=1;jettySize=auto;html=1;entryX=0.25;entryY=0;entryDx=0;entryDy=0;fontSize=12;exitX=0.5;exitY=1;exitDx=0;exitDy=0;" parent="1" source="grYxfkFOOMS37sdBGafB-17" target="grYxfkFOOMS37sdBGafB-43" edge="1">
          <mxGeometry relative="1" as="geometry">
            <Array as="points">
              <mxPoint x="75" y="400" />
              <mxPoint x="160" y="400" />
            </Array>
          </mxGeometry>
        </mxCell>
        <mxCell id="grYxfkFOOMS37sdBGafB-17" value="Mandelbrot" style="rounded=0;whiteSpace=wrap;html=1;" parent="1" vertex="1">
          <mxGeometry x="40" y="240" width="70" height="40" as="geometry" />
        </mxCell>
        <mxCell id="grYxfkFOOMS37sdBGafB-37" style="edgeStyle=orthogonalEdgeStyle;rounded=0;orthogonalLoop=1;jettySize=auto;html=1;entryX=0.5;entryY=0;entryDx=0;entryDy=0;exitX=0.5;exitY=1;exitDx=0;exitDy=0;" parent="1" source="grYxfkFOOMS37sdBGafB-18" target="grYxfkFOOMS37sdBGafB-33" edge="1">
          <mxGeometry relative="1" as="geometry">
            <mxPoint x="305" y="300" as="sourcePoint" />
            <mxPoint x="305" y="329.9999999999998" as="targetPoint" />
          </mxGeometry>
        </mxCell>
        <mxCell id="grYxfkFOOMS37sdBGafB-18" value="Newton&#39;s Fractals" style="rounded=0;whiteSpace=wrap;html=1;" parent="1" vertex="1">
          <mxGeometry x="270" y="240" width="70" height="40" as="geometry" />
        </mxCell>
        <mxCell id="grYxfkFOOMS37sdBGafB-35" style="edgeStyle=orthogonalEdgeStyle;rounded=0;orthogonalLoop=1;jettySize=auto;html=1;exitX=0.5;exitY=1;exitDx=0;exitDy=0;entryX=0.5;entryY=0;entryDx=0;entryDy=0;" parent="1" source="grYxfkFOOMS37sdBGafB-19" target="grYxfkFOOMS37sdBGafB-32" edge="1">
          <mxGeometry relative="1" as="geometry" />
        </mxCell>
        <mxCell id="grYxfkFOOMS37sdBGafB-19" value="Julia Sets" style="rounded=0;whiteSpace=wrap;html=1;" parent="1" vertex="1">
          <mxGeometry x="155" y="240" width="70" height="40" as="geometry" />
        </mxCell>
        <mxCell id="grYxfkFOOMS37sdBGafB-107" style="edgeStyle=orthogonalEdgeStyle;rounded=0;orthogonalLoop=1;jettySize=auto;html=1;entryX=0.5;entryY=0;entryDx=0;entryDy=0;fontSize=12;" parent="1" source="grYxfkFOOMS37sdBGafB-32" target="grYxfkFOOMS37sdBGafB-43" edge="1">
          <mxGeometry relative="1" as="geometry" />
        </mxCell>
        <mxCell id="grYxfkFOOMS37sdBGafB-32" value="Input &#39;c&#39; parameter" style="rounded=0;whiteSpace=wrap;html=1;" parent="1" vertex="1">
          <mxGeometry x="155" y="310" width="70" height="60" as="geometry" />
        </mxCell>
        <mxCell id="grYxfkFOOMS37sdBGafB-108" style="edgeStyle=orthogonalEdgeStyle;rounded=0;orthogonalLoop=1;jettySize=auto;html=1;entryX=0.75;entryY=0;entryDx=0;entryDy=0;fontSize=12;exitX=0.5;exitY=1;exitDx=0;exitDy=0;" parent="1" source="grYxfkFOOMS37sdBGafB-33" target="grYxfkFOOMS37sdBGafB-43" edge="1">
          <mxGeometry relative="1" as="geometry" />
        </mxCell>
        <mxCell id="grYxfkFOOMS37sdBGafB-33" value="Input polynomial" style="rounded=0;whiteSpace=wrap;html=1;" parent="1" vertex="1">
          <mxGeometry x="270" y="310" width="70" height="60" as="geometry" />
        </mxCell>
        <mxCell id="grYxfkFOOMS37sdBGafB-38" value="Menu" style="rounded=1;whiteSpace=wrap;html=1;" parent="1" vertex="1">
          <mxGeometry x="135" y="130" width="110" height="50" as="geometry" />
        </mxCell>
        <mxCell id="grYxfkFOOMS37sdBGafB-42" value="" style="group" parent="1" vertex="1" connectable="0">
          <mxGeometry x="80" y="40" width="220" height="60" as="geometry" />
        </mxCell>
        <mxCell id="grYxfkFOOMS37sdBGafB-41" value="" style="rounded=1;whiteSpace=wrap;html=1;" parent="grYxfkFOOMS37sdBGafB-42" vertex="1">
          <mxGeometry width="220" height="60" as="geometry" />
        </mxCell>
        <mxCell id="grYxfkFOOMS37sdBGafB-40" value="Fractal Explorer" style="text;strokeColor=none;fillColor=none;html=1;fontSize=24;fontStyle=1;verticalAlign=middle;align=center;" parent="grYxfkFOOMS37sdBGafB-42" vertex="1">
          <mxGeometry x="60" y="10" width="100" height="40" as="geometry" />
        </mxCell>
        <mxCell id="grYxfkFOOMS37sdBGafB-50" style="edgeStyle=orthogonalEdgeStyle;rounded=0;orthogonalLoop=1;jettySize=auto;html=1;entryX=0.5;entryY=0;entryDx=0;entryDy=0;" parent="1" source="grYxfkFOOMS37sdBGafB-43" target="grYxfkFOOMS37sdBGafB-48" edge="1">
          <mxGeometry relative="1" as="geometry" />
        </mxCell>
        <mxCell id="grYxfkFOOMS37sdBGafB-43" value="Explore Mode" style="rounded=1;whiteSpace=wrap;html=1;" parent="1" vertex="1">
          <mxGeometry x="130" y="430" width="120" height="50" as="geometry" />
        </mxCell>
        <mxCell id="grYxfkFOOMS37sdBGafB-53" style="edgeStyle=orthogonalEdgeStyle;rounded=0;orthogonalLoop=1;jettySize=auto;html=1;exitX=0.5;exitY=1;exitDx=0;exitDy=0;entryX=0.5;entryY=0;entryDx=0;entryDy=0;" parent="1" source="grYxfkFOOMS37sdBGafB-47" target="grYxfkFOOMS37sdBGafB-49" edge="1">
          <mxGeometry relative="1" as="geometry" />
        </mxCell>
        <mxCell id="grYxfkFOOMS37sdBGafB-47" value="User can zoom/move about fractal using GUI" style="rounded=0;whiteSpace=wrap;html=1;" parent="1" vertex="1">
          <mxGeometry x="151" y="570" width="78" height="60" as="geometry" />
        </mxCell>
        <mxCell id="grYxfkFOOMS37sdBGafB-52" style="edgeStyle=orthogonalEdgeStyle;rounded=0;orthogonalLoop=1;jettySize=auto;html=1;exitX=0.5;exitY=1;exitDx=0;exitDy=0;entryX=0.5;entryY=0;entryDx=0;entryDy=0;" parent="1" source="grYxfkFOOMS37sdBGafB-48" target="grYxfkFOOMS37sdBGafB-47" edge="1">
          <mxGeometry relative="1" as="geometry" />
        </mxCell>
        <mxCell id="grYxfkFOOMS37sdBGafB-48" value="Generate first instance of fractal" style="rounded=0;whiteSpace=wrap;html=1;" parent="1" vertex="1">
          <mxGeometry x="151" y="500" width="78" height="50" as="geometry" />
        </mxCell>
        <mxCell id="grYxfkFOOMS37sdBGafB-55" style="edgeStyle=orthogonalEdgeStyle;rounded=0;orthogonalLoop=1;jettySize=auto;html=1;entryX=0.5;entryY=0;entryDx=0;entryDy=0;" parent="1" source="grYxfkFOOMS37sdBGafB-49" target="grYxfkFOOMS37sdBGafB-54" edge="1">
          <mxGeometry relative="1" as="geometry" />
        </mxCell>
        <mxCell id="grYxfkFOOMS37sdBGafB-49" value="Regenerate after every frame if movement has occurred" style="rounded=0;whiteSpace=wrap;html=1;" parent="1" vertex="1">
          <mxGeometry x="142.5" y="648" width="95" height="65" as="geometry" />
        </mxCell>
        <mxCell id="grYxfkFOOMS37sdBGafB-95" style="edgeStyle=orthogonalEdgeStyle;rounded=0;orthogonalLoop=1;jettySize=auto;html=1;entryX=0;entryY=0.5;entryDx=0;entryDy=0;fontSize=9;exitX=1;exitY=0.5;exitDx=0;exitDy=0;" parent="1" source="grYxfkFOOMS37sdBGafB-54" target="grYxfkFOOMS37sdBGafB-56" edge="1">
          <mxGeometry relative="1" as="geometry">
            <Array as="points">
              <mxPoint x="370" y="780" />
              <mxPoint x="370" y="95" />
            </Array>
          </mxGeometry>
        </mxCell>
        <mxCell id="grYxfkFOOMS37sdBGafB-54" value="User can press &#39;record&#39; and move around the fractal; the program will record its path" style="rounded=0;whiteSpace=wrap;html=1;" parent="1" vertex="1">
          <mxGeometry x="142.5" y="730" width="95" height="100" as="geometry" />
        </mxCell>
        <mxCell id="grYxfkFOOMS37sdBGafB-65" style="edgeStyle=orthogonalEdgeStyle;rounded=0;orthogonalLoop=1;jettySize=auto;html=1;entryX=0.5;entryY=0;entryDx=0;entryDy=0;" parent="1" source="grYxfkFOOMS37sdBGafB-56" target="grYxfkFOOMS37sdBGafB-62" edge="1">
          <mxGeometry relative="1" as="geometry">
            <Array as="points">
              <mxPoint x="560" y="140" />
              <mxPoint x="490" y="140" />
            </Array>
          </mxGeometry>
        </mxCell>
        <mxCell id="grYxfkFOOMS37sdBGafB-66" style="edgeStyle=orthogonalEdgeStyle;rounded=0;orthogonalLoop=1;jettySize=auto;html=1;entryX=0.5;entryY=0;entryDx=0;entryDy=0;" parent="1" source="grYxfkFOOMS37sdBGafB-56" target="grYxfkFOOMS37sdBGafB-64" edge="1">
          <mxGeometry relative="1" as="geometry">
            <Array as="points">
              <mxPoint x="560" y="140" />
              <mxPoint x="630" y="140" />
            </Array>
          </mxGeometry>
        </mxCell>
        <mxCell id="grYxfkFOOMS37sdBGafB-56" value="Cinematic Mode" style="rounded=1;whiteSpace=wrap;html=1;" parent="1" vertex="1">
          <mxGeometry x="500" y="70" width="120" height="50" as="geometry" />
        </mxCell>
        <mxCell id="grYxfkFOOMS37sdBGafB-71" style="edgeStyle=orthogonalEdgeStyle;rounded=0;orthogonalLoop=1;jettySize=auto;html=1;entryX=0.5;entryY=0;entryDx=0;entryDy=0;" parent="1" source="grYxfkFOOMS37sdBGafB-58" target="grYxfkFOOMS37sdBGafB-70" edge="1">
          <mxGeometry relative="1" as="geometry" />
        </mxCell>
        <mxCell id="grYxfkFOOMS37sdBGafB-58" value="Program calls external Compute Shader program, loads recorded path" style="rounded=0;whiteSpace=wrap;html=1;" parent="1" vertex="1">
          <mxGeometry x="500" y="330" width="120" height="70" as="geometry" />
        </mxCell>
        <mxCell id="grYxfkFOOMS37sdBGafB-81" style="edgeStyle=orthogonalEdgeStyle;rounded=0;orthogonalLoop=1;jettySize=auto;html=1;entryX=0.5;entryY=0;entryDx=0;entryDy=0;" parent="1" source="grYxfkFOOMS37sdBGafB-62" target="grYxfkFOOMS37sdBGafB-79" edge="1">
          <mxGeometry relative="1" as="geometry" />
        </mxCell>
        <mxCell id="grYxfkFOOMS37sdBGafB-62" value="Create video" style="rounded=0;whiteSpace=wrap;html=1;" parent="1" vertex="1">
          <mxGeometry x="450" y="160" width="80" height="50" as="geometry" />
        </mxCell>
        <mxCell id="grYxfkFOOMS37sdBGafB-84" style="edgeStyle=orthogonalEdgeStyle;rounded=0;orthogonalLoop=1;jettySize=auto;html=1;entryX=0.5;entryY=0;entryDx=0;entryDy=0;" parent="1" source="grYxfkFOOMS37sdBGafB-64" target="grYxfkFOOMS37sdBGafB-83" edge="1">
          <mxGeometry relative="1" as="geometry" />
        </mxCell>
        <mxCell id="grYxfkFOOMS37sdBGafB-64" value="Watch live" style="rounded=0;whiteSpace=wrap;html=1;" parent="1" vertex="1">
          <mxGeometry x="590" y="160" width="80" height="50" as="geometry" />
        </mxCell>
        <mxCell id="grYxfkFOOMS37sdBGafB-75" style="edgeStyle=orthogonalEdgeStyle;rounded=0;orthogonalLoop=1;jettySize=auto;html=1;entryX=0.5;entryY=0;entryDx=0;entryDy=0;" parent="1" source="grYxfkFOOMS37sdBGafB-70" target="grYxfkFOOMS37sdBGafB-74" edge="1">
          <mxGeometry relative="1" as="geometry" />
        </mxCell>
        <mxCell id="grYxfkFOOMS37sdBGafB-78" style="edgeStyle=orthogonalEdgeStyle;rounded=0;orthogonalLoop=1;jettySize=auto;html=1;" parent="1" source="grYxfkFOOMS37sdBGafB-70" target="grYxfkFOOMS37sdBGafB-77" edge="1">
          <mxGeometry relative="1" as="geometry" />
        </mxCell>
        <mxCell id="grYxfkFOOMS37sdBGafB-70" value="Fractal iterated to high levels of precision in parallel" style="rounded=0;whiteSpace=wrap;html=1;" parent="1" vertex="1">
          <mxGeometry x="500" y="420" width="120" height="60" as="geometry" />
        </mxCell>
        <mxCell id="grYxfkFOOMS37sdBGafB-97" style="edgeStyle=orthogonalEdgeStyle;rounded=0;orthogonalLoop=1;jettySize=auto;html=1;fontSize=9;" parent="1" source="grYxfkFOOMS37sdBGafB-74" edge="1">
          <mxGeometry relative="1" as="geometry">
            <mxPoint x="480" y="670" as="targetPoint" />
          </mxGeometry>
        </mxCell>
        <mxCell id="grYxfkFOOMS37sdBGafB-74" value="Generate video following recorded path; when path is completed, continue to zoom in until the desired length is reached." style="rounded=0;whiteSpace=wrap;html=1;" parent="1" vertex="1">
          <mxGeometry x="410" y="530" width="140" height="100" as="geometry" />
        </mxCell>
        <mxCell id="grYxfkFOOMS37sdBGafB-100" style="edgeStyle=orthogonalEdgeStyle;rounded=0;orthogonalLoop=1;jettySize=auto;html=1;entryX=0.5;entryY=0;entryDx=0;entryDy=0;fontSize=12;" parent="1" source="grYxfkFOOMS37sdBGafB-77" target="grYxfkFOOMS37sdBGafB-99" edge="1">
          <mxGeometry relative="1" as="geometry" />
        </mxCell>
        <mxCell id="grYxfkFOOMS37sdBGafB-77" value="Display generation following recorded path; when path is completed, continue to zoom in until the program is halted." style="rounded=0;whiteSpace=wrap;html=1;" parent="1" vertex="1">
          <mxGeometry x="570" y="530" width="140" height="100" as="geometry" />
        </mxCell>
        <mxCell id="grYxfkFOOMS37sdBGafB-86" style="edgeStyle=orthogonalEdgeStyle;rounded=0;orthogonalLoop=1;jettySize=auto;html=1;entryX=0;entryY=0.5;entryDx=0;entryDy=0;" parent="1" source="grYxfkFOOMS37sdBGafB-79" target="grYxfkFOOMS37sdBGafB-83" edge="1">
          <mxGeometry relative="1" as="geometry" />
        </mxCell>
        <mxCell id="grYxfkFOOMS37sdBGafB-79" value="Input desired video length" style="rounded=0;whiteSpace=wrap;html=1;" parent="1" vertex="1">
          <mxGeometry x="450" y="230" width="80" height="50" as="geometry" />
        </mxCell>
        <mxCell id="grYxfkFOOMS37sdBGafB-87" style="edgeStyle=orthogonalEdgeStyle;rounded=0;orthogonalLoop=1;jettySize=auto;html=1;entryX=0.5;entryY=0;entryDx=0;entryDy=0;" parent="1" source="grYxfkFOOMS37sdBGafB-83" target="grYxfkFOOMS37sdBGafB-58" edge="1">
          <mxGeometry relative="1" as="geometry" />
        </mxCell>
        <mxCell id="grYxfkFOOMS37sdBGafB-83" value="Input speed" style="rounded=0;whiteSpace=wrap;html=1;" parent="1" vertex="1">
          <mxGeometry x="590" y="230" width="80" height="50" as="geometry" />
        </mxCell>
        <mxCell id="grYxfkFOOMS37sdBGafB-88" value="" style="endArrow=none;dashed=1;html=1;dashPattern=1 3;strokeWidth=2;rounded=0;exitX=0;exitY=0;exitDx=0;exitDy=0;" parent="1" source="grYxfkFOOMS37sdBGafB-74" edge="1">
          <mxGeometry width="50" height="50" relative="1" as="geometry">
            <mxPoint x="410" y="180" as="sourcePoint" />
            <mxPoint x="450" y="180" as="targetPoint" />
            <Array as="points">
              <mxPoint x="410" y="180" />
            </Array>
          </mxGeometry>
        </mxCell>
        <mxCell id="grYxfkFOOMS37sdBGafB-89" value="" style="endArrow=none;dashed=1;html=1;dashPattern=1 3;strokeWidth=2;rounded=0;exitX=1;exitY=0;exitDx=0;exitDy=0;entryX=1;entryY=0.5;entryDx=0;entryDy=0;" parent="1" source="grYxfkFOOMS37sdBGafB-77" target="grYxfkFOOMS37sdBGafB-64" edge="1">
          <mxGeometry width="50" height="50" relative="1" as="geometry">
            <mxPoint x="710" y="520" as="sourcePoint" />
            <mxPoint x="750" y="170" as="targetPoint" />
            <Array as="points">
              <mxPoint x="710" y="185" />
            </Array>
          </mxGeometry>
        </mxCell>
        <mxCell id="grYxfkFOOMS37sdBGafB-90" value="for video" style="text;html=1;strokeColor=none;fillColor=none;align=center;verticalAlign=middle;whiteSpace=wrap;rounded=0;fontSize=9;" parent="1" vertex="1">
          <mxGeometry x="470" y="490" width="50" height="20" as="geometry" />
        </mxCell>
        <mxCell id="grYxfkFOOMS37sdBGafB-91" value="for live" style="text;html=1;strokeColor=none;fillColor=none;align=center;verticalAlign=middle;whiteSpace=wrap;rounded=0;fontSize=9;" parent="1" vertex="1">
          <mxGeometry x="600" y="490" width="50" height="20" as="geometry" />
        </mxCell>
        <mxCell id="grYxfkFOOMS37sdBGafB-102" style="edgeStyle=orthogonalEdgeStyle;rounded=0;orthogonalLoop=1;jettySize=auto;html=1;entryX=0;entryY=0.5;entryDx=0;entryDy=0;fontSize=12;" parent="1" source="grYxfkFOOMS37sdBGafB-98" target="grYxfkFOOMS37sdBGafB-101" edge="1">
          <mxGeometry relative="1" as="geometry" />
        </mxCell>
        <mxCell id="grYxfkFOOMS37sdBGafB-98" value="&lt;font style=&quot;font-size: 12px;&quot;&gt;Export video&lt;/font&gt;" style="rounded=0;whiteSpace=wrap;html=1;fontSize=12;" parent="1" vertex="1">
          <mxGeometry x="420" y="670" width="120" height="60" as="geometry" />
        </mxCell>
        <mxCell id="grYxfkFOOMS37sdBGafB-103" style="edgeStyle=orthogonalEdgeStyle;rounded=0;orthogonalLoop=1;jettySize=auto;html=1;entryX=1;entryY=0.5;entryDx=0;entryDy=0;fontSize=12;" parent="1" source="grYxfkFOOMS37sdBGafB-99" target="grYxfkFOOMS37sdBGafB-101" edge="1">
          <mxGeometry relative="1" as="geometry" />
        </mxCell>
        <mxCell id="grYxfkFOOMS37sdBGafB-99" value="Wait for user to exit program" style="rounded=0;whiteSpace=wrap;html=1;fontSize=12;" parent="1" vertex="1">
          <mxGeometry x="580" y="670" width="120" height="60" as="geometry" />
        </mxCell>
        <mxCell id="grYxfkFOOMS37sdBGafB-101" value="Halt Program" style="rounded=1;whiteSpace=wrap;html=1;fontSize=12;" parent="1" vertex="1">
          <mxGeometry x="500" y="770" width="120" height="50" as="geometry" />
        </mxCell>
      </root>
    </mxGraphModel>
  </diagram>
</mxfile>
